<?xml version="1.0" ?><svg style="enable-background:new 0 0 44 44;" version="1.1" viewBox="0 0 45 45" xml:space="preserve" xmlns="http://www.w3.org/2000/svg" xmlns:xlink="http://www.w3.org/1999/xlink"><path d="M30,8v0.6c0,3.8-0.2,7-0.6,11.3c-0.1,0.5,0.3,1,0.9,1.1c0,0,0.1,0,0.1,0c0.5,0,0.9-0.4,1-0.9c0.5-4.3,0.6-7.7,0.6-11.5V8    c0-0.6-0.4-1-1-1S30,7.4,30,8z"/><path d="M11,7c-0.6,0-1,0.4-1,1v0.6c0,3.8,0.2,7.2,0.6,11.5c0.1,0.5,0.5,0.9,1,0.9c0,0,0.1,0,0.1,0c0.5-0.1,0.9-0.6,0.9-1.1    C12.2,15.6,12,12.4,12,8.6V8C12,7.4,11.6,7,11,7z"/><path d="M20,8v12c0,0.6,0.4,1,1,1s1-0.4,1-1V8c0-0.6-0.4-1-1-1S20,7.4,20,8z"/><path d="M43,29c-0.6,0-1-0.4-1-1v-0.5l1-3.2c0.1-0.3,0-0.6-0.2-0.9C42.6,23.1,42.3,23,42,23H7c-0.6,0-1,0.4-1,1s0.4,1,1,1h3v3    c-2.5,0-4.8,1.4-6,3.4V24c0-0.1,0-0.1,0-0.2C2.7,17.5,2.1,11.1,2,4.7C3.5,5.4,5.2,6,7,6c1.3,0,2.7-0.3,4-0.9c2.7,1.2,7.3,1.2,10,0    c2.7,1.2,7.3,1.2,10,0C32.3,5.7,33.7,6,35,6c1.8,0,3.5-0.6,5-1.3c0,5.1-0.5,10.2-1.3,15.2c-0.1,0.5,0.3,1.1,0.8,1.1    c0.5,0.1,1.1-0.3,1.1-0.8C41.6,14.8,42,9.3,42,3.8V3c0-0.4-0.2-0.7-0.5-0.9c-0.3-0.2-0.7-0.2-1,0C38.9,3,37.1,4,35,4    c-1.1,0-2.3-0.3-3.5-0.9c-0.3-0.2-0.6-0.1-0.9,0c-2.2,1.2-6.9,1.2-9.1,0c-0.3-0.2-0.7-0.2-0.9,0c-2.2,1.2-6.9,1.2-9.1,0    c-0.3-0.2-0.6-0.2-0.9,0C9.4,3.7,8.2,4,7,4c-2.1,0-4-1-5.5-1.9C1.2,2,0.8,2,0.5,2.1S0,2.6,0,3v0.8c0,6.8,0.7,13.6,2,20.3V34    c0,0.6,0.4,1,1,1c0,3.9,3.1,7,7,7s7-3.1,7-7h6c0.6,0,1-0.4,1-1s-0.4-1-1-1h-3v-8h6v6.4c-0.6,1.1-1,2.3-1,3.6c0,3.9,3.1,7,7,7    s7-3.1,7-7c0.4,0,0.8-0.3,1-0.7l1.2-3.9c0.5,0.4,1.2,0.7,1.9,0.7c0.6,0,1-0.4,1-1S43.6,29,43,29z M5,35c0-0.6,0.1-1.1,0.3-1.6    L8,35l-2.7,1.6C5.1,36.1,5,35.6,5,35z M15,35c0,0.6-0.1,1.1-0.3,1.6L12,35l2.7-1.6C14.9,33.9,15,34.4,15,35z M11,33.3v-3.2    c1.1,0.2,2,0.8,2.7,1.6L11,33.3z M9,30.1v3.2l-2.7-1.6C7,30.9,7.9,30.3,9,30.1z M6.3,38.3L9,36.7v3.2C7.9,39.7,7,39.1,6.3,38.3z     M11,39.9v-3.2l2.7,1.6C13,39.1,12.1,39.7,11,39.9z M18,33h-1.3c-0.7-2.3-2.5-4-4.7-4.7V25h6V33z M34,25v3.3    c-0.6-0.2-1.3-0.3-2-0.3c-1.5,0-2.9,0.5-4,1.3V25H34z M31,33.3l-2.7-1.6c0.7-0.8,1.6-1.4,2.7-1.6V33.3z M27,35    c0-0.6,0.1-1.1,0.3-1.6L30,35l-2.7,1.6C27.1,36.1,27,35.6,27,35z M37,35c0,0.6-0.1,1.1-0.3,1.6L34,35l2.7-1.6C36.9,33.9,37,34.4,37,35z M33,33.3v-3.2c1.1,0.2,2,0.8,2.7,1.6L33,33.3z M28.3,38.3l2.7-1.6v3.2C29.9,39.7,29,39.1,28.3,38.3z     M33,39.9v-3.2l2.7,1.6C35,39.1,34.1,39.7,33,39.9z M38.5,32.3c-0.5-1.2-1.4-2.3-2.5-3V25h4.7L38.5,32.3z"/></svg>