<?xml version="1.0" ?><svg style="enable-background:new 0 0 44 44;" version="1.1" viewBox="0 0 44 44" xml:space="preserve" xmlns="http://www.w3.org/2000/svg" xmlns:xlink="http://www.w3.org/1999/xlink"><g id="cactus"/><g id="sherif"/><g id="hat"/><g id="dreamcatcher"/><g id="door"/><g id="boot"/><g id="horseshoe"/><g id="tomahawk"/><g id="flask"/><g id="horse"/><g id="wanted"/><g id="pistol"/><g id="cowboy"/><g id="indian"/><g id="gallows"/><g id="bull_x5F_skull"/><g id="arrows"><g><path d="M43.7,36.3l-7-7C36.5,29.1,36.3,29,36,29h-4.6l-5.7-5.7c-0.4-0.4-1-0.4-1.4,0s-0.4,1,0,1.4l5.7,5.7V35    c0,0.3,0.1,0.5,0.3,0.7l7,7c0.2,0.2,0.4,0.3,0.7,0.3c0.1,0,0.3,0,0.4-0.1c0.4-0.2,0.6-0.5,0.6-0.9v-2.6l1.3,1.3    c0.2,0.2,0.5,0.3,0.7,0.3s0.5-0.1,0.7-0.3c0.4-0.4,0.4-1,0-1.4L40.4,38H43c0.4,0,0.8-0.2,0.9-0.6S44,36.6,43.7,36.3z M37,39.6    l-5-5v-2.2l5,5V39.6z M38.4,36l-5-5h2.2l5,5H38.4z"/><path d="M29,15.4l0.3,0.3c0.2,0.2,0.5,0.3,0.7,0.3s0.5-0.1,0.7-0.3c0.4-0.4,0.4-1,0-1.4L30.4,14l0.6-0.6l0.3,0.3    c0.2,0.2,0.5,0.3,0.7,0.3s0.5-0.1,0.7-0.3c0.4-0.4,0.4-1,0-1.4L32.4,12l1.2-1.2l1.4,3.6c0.2,0.4,0.5,0.6,0.9,0.6c0,0,0.1,0,0.1,0    c0.4,0,0.8-0.4,0.9-0.8c0.6-3.8,2.1-7.4,4.2-10.7l0.6-0.9c0.3-0.4,0.2-0.9-0.1-1.3c-0.3-0.3-0.9-0.4-1.3-0.1l-0.9,0.6    C36.3,4,32.7,5.4,28.8,6c-0.4,0.1-0.8,0.4-0.8,0.9s0.2,0.9,0.6,1l3.6,1.4L31,10.6l-0.3-0.3c-0.4-0.4-1-0.4-1.4,0s-0.4,1,0,1.4    l0.3,0.3L29,12.6l-0.3-0.3c-0.4-0.4-1-0.4-1.4,0s-0.4,1,0,1.4l0.3,0.3L22,19.6L16.4,14l0.3-0.3c0.4-0.4,0.4-1,0-1.4s-1-0.4-1.4,0    L15,12.6L14.4,12l0.3-0.3c0.4-0.4,0.4-1,0-1.4s-1-0.4-1.4,0L13,10.6l-1.2-1.2l3.6-1.4c0.4-0.2,0.7-0.6,0.6-1S15.6,6.1,15.2,6    C11.3,5.4,7.7,4,4.5,1.8L3.6,1.2C3.2,0.9,2.6,1,2.3,1.3C2,1.6,1.9,2.2,2.2,2.6l0.6,0.9C5,6.7,6.4,10.3,7,14.2    c0.1,0.4,0.4,0.8,0.9,0.8c0,0,0.1,0,0.1,0c0.4,0,0.8-0.2,0.9-0.6l1.4-3.6l1.2,1.2l-0.3,0.3c-0.4,0.4-0.4,1,0,1.4    c0.2,0.2,0.5,0.3,0.7,0.3s0.5-0.1,0.7-0.3l0.3-0.3l0.6,0.6l-0.3,0.3c-0.4,0.4-0.4,1,0,1.4c0.2,0.2,0.5,0.3,0.7,0.3    s0.5-0.1,0.7-0.3l0.3-0.3l5.6,5.6l-8,8H8c-0.3,0-0.5,0.1-0.7,0.3l-7,7C0,36.6-0.1,37,0.1,37.4S0.6,38,1,38h2.6l-1.3,1.3    c-0.4,0.4-0.4,1,0,1.4C2.5,40.9,2.7,41,3,41s0.5-0.1,0.7-0.3L5,39.4V42c0,0.4,0.2,0.8,0.6,0.9C5.7,43,5.9,43,6,43    c0.3,0,0.5-0.1,0.7-0.3l7-7c0.2-0.2,0.3-0.4,0.3-0.7v-4.6L29,15.4z M32.4,7.3C34.3,6.7,36.2,6,38,5c-0.9,1.8-1.7,3.7-2.2,5.6    l-0.6-1.4l0.5-0.5c0.4-0.4,0.4-1,0-1.4s-1-0.4-1.4,0l-0.5,0.5L32.4,7.3z M8.3,10.6C7.7,8.7,7,6.8,6,5C7.8,6,9.7,6.7,11.6,7.3    l-1.4,0.6L9.7,7.3c-0.4-0.4-1-0.4-1.4,0s-0.4,1,0,1.4l0.5,0.5L8.3,10.6z M3.4,36l5-5h2.2l-5,5H3.4z M12,34.6l-5,5v-2.2l5-5V34.6z"/></g></g><g id="wagon"/><g id="saloon"/><g id="pickaxe_x5F_shovel"/></svg>