<?xml version="1.0" ?><svg style="enable-background:new 0 0 44 44;" version="1.1" viewBox="0 0 44 44" xml:space="preserve" xmlns="http://www.w3.org/2000/svg" xmlns:xlink="http://www.w3.org/1999/xlink"><g id="cactus"/><g id="sherif"/><g id="hat"/><g id="dreamcatcher"/><g id="door"/><g id="boot"/><g id="horseshoe"/><g id="tomahawk"/><g id="flask"/><g id="horse"/><g id="wanted"/><g id="pistol"/><g id="cowboy"><g><path d="M8.3,10.7c0.9,0.7,1.9,1.2,2.8,1.7C11.1,12.6,11,12.8,11,13v2c0,0.6,0.4,1,1,1c0.2,0,0.3,0,0.4-0.1l0.1,1.2    c0.3,5,4.5,8.9,9.5,8.9s9.2-3.9,9.5-8.9l0.1-1.2C31.7,16,31.8,16,32,16c0.6,0,1-0.4,1-1v-2c0-0.2-0.1-0.4-0.2-0.5    c1-0.5,1.9-1.1,2.8-1.7c0.8-0.6,1.3-1.5,1.3-2.5C37,6.3,35.4,5,33.2,5H32c-0.6,0-1,0.4-1,1s0.4,1,1,1h1.2C34,7,35,7.4,35,8.2    c0,0.3-0.2,0.7-0.5,0.9c-7.1,5.2-17.9,5.2-25,0C9.2,8.9,9,8.5,9,8.2C9,7.4,10,7,10.8,7H12c0.6,0,1-0.4,1-1s-0.4-1-1-1h-1.2    C8.6,5,7,6.3,7,8.2C7,9.2,7.5,10.1,8.3,10.7z M22,24c-3.4,0-6.3-2.3-7.2-5.5c2.1,1,4.6,1.5,7.2,1.5s5.1-0.5,7.2-1.5    C28.3,21.7,25.4,24,22,24z M22,15c0.7,0,1.3,0,2-0.1c0,0,0,0.1,0,0.1c0,0.6,0.4,1,1,1c0.6,0,1-0.4,1-1c0-0.1,0-0.2-0.1-0.3    c1.3-0.2,2.5-0.5,3.8-0.9l-0.1,2.4c0,0,0,0-0.1,0c-2,1.2-4.6,1.9-7.5,1.9s-5.5-0.7-7.5-1.9c0,0,0,0-0.1,0l-0.1-2.4    c1.2,0.4,2.5,0.7,3.8,0.9c0,0.1-0.1,0.2-0.1,0.3c0,0.6,0.4,1,1,1c0.6,0,1-0.4,1-1c0,0,0-0.1,0-0.1C20.7,15,21.3,15,22,15z"/><path d="M15,8.9c0.6,0,1-0.4,1-1V7.4c0-1.4,0.3-2.8,1-4.1l0.4-0.8C17.5,2.2,17.9,2,18.2,2h7.5c0.4,0,0.7,0.2,0.9,0.6L27,3.3    c0.6,1.2,0.9,2.6,1,4C26.3,7.7,24.2,8,22,8c-1,0-2-0.1-2.9-0.2c-0.5-0.1-1,0.3-1.1,0.9c-0.1,0.5,0.3,1,0.9,1.1    c1,0.1,2.1,0.2,3.1,0.2c2.8,0,5.4-0.4,7.3-1.1c0.4-0.1,0.7-0.6,0.7-1V7.4c0-1.7-0.4-3.4-1.2-5l-0.4-0.8c-0.5-1-1.5-1.7-2.7-1.7    h-7.5c-1.1,0-2.2,0.6-2.7,1.7l-0.4,0.8c-0.8,1.5-1.2,3.3-1.2,5v0.5C14,8.5,14.4,8.9,15,8.9z"/><path d="M35.9,29.4l-6.3-1.1c0.3-0.6,0.7-1.1,1.1-1.6c0.4-0.4,0.3-1-0.1-1.4s-1-0.3-1.4,0.1c-2.2,2.5-3.1,5.7-2.5,9.5    c-0.9-0.2-1.7-0.3-2.5-0.6c-4.5-1.5-8-4.7-9.3-8.5c-0.2-0.5-0.7-0.8-1.3-0.6c-0.5,0.2-0.8,0.7-0.6,1.3c0.2,0.7,0.5,1.4,0.9,2    l-5.8,1.1C5.7,29.9,4,31.9,4,34.3V41c0,1.7,1.3,3,3,3h15c0.6,0,1-0.4,1-1v-5c0-0.6-0.4-1-1-1s-1,0.4-1,1v4H7c-0.6,0-1-0.4-1-1    v-6.7c0-1.5,1-2.7,2.5-3l6.7-1.2c2,2.7,5,4.8,8.5,5.9c1,0.3,2.2,0.6,3.7,0.8l0.6,0.1c0,0,0.1,0,0.1,0c0.3,0,0.6-0.1,0.7-0.3    c0.2-0.2,0.3-0.6,0.2-0.9l0-0.1c-0.4-1.6-0.6-3.5-0.1-5.5l6.7,1.2c1.4,0.3,2.5,1.5,2.5,3V41c0,0.6-0.4,1-1,1H26c-0.6,0-1,0.4-1,1    s0.4,1,1,1h11c1.7,0,3-1.3,3-3v-6.7C40,31.9,38.3,29.9,35.9,29.4z"/></g></g><g id="indian"/><g id="gallows"/><g id="bull_x5F_skull"/><g id="arrows"/><g id="wagon"/><g id="saloon"/><g id="pickaxe_x5F_shovel"/></svg>