<?xml version="1.0" ?><svg style="enable-background:new 0 0 44 44;" version="1.1" viewBox="0 0 44 44" xml:space="preserve" xmlns="http://www.w3.org/2000/svg" xmlns:xlink="http://www.w3.org/1999/xlink"><g id="cactus"><g><g><circle cx="22" cy="25" r="1"/></g><g><path d="M39,42H24.5v-9.2c0.1,0.1,0.3,0.2,0.5,0.2c0.6,0,1-0.4,1-1s-0.4-1-1-1c-0.2,0-0.4,0.1-0.5,0.2V9.8C24.8,9.7,25,9.4,25,9     s-0.2-0.7-0.5-0.8V3c0,0,0-0.1,0-0.1C25.4,3.6,26,4.7,26,6v23.3c0,0.4,0.2,0.7,0.5,0.9c0.3,0.2,0.7,0.2,1,0l2.5-1.7     c0.2,0.3,0.5,0.6,0.9,0.6c0.6,0,1-0.4,1-1c0-0.3-0.1-0.5-0.3-0.7l0.4-0.3c0.6-0.4,0.9-1,0.9-1.7V21c0.6,0,1-0.4,1-1s-0.4-1-1-1     v-2c0-0.6,0.4-1,1-1s1,0.4,1,1v8.4c0,1.3-0.7,2.6-1.8,3.3l-6.8,4.5c-0.3,0.2-0.4,0.5-0.4,0.8V39c0,0.6,0.4,1,1,1s1-0.4,1-1v-1     c0.6,0,1-0.4,1-1s-0.4-1-1-1v-1.4l6.3-4.2c1.7-1.1,2.7-3,2.7-5V25c0.6,0,1-0.4,1-1s-0.4-1-1-1v-4c0.6,0,1-0.4,1-1s-0.4-1-1-1     c0-1.7-1.3-3-3-3s-3,1.3-3,3v4c-0.6,0-1,0.4-1,1s0.4,1,1,1v2.4l-3,2V17c0.6,0,1-0.4,1-1s-0.4-1-1-1v-2c0.6,0,1-0.4,1-1     s-0.4-1-1-1V9c0.6,0,1-0.4,1-1s-0.4-1-1-1V6c0-3.3-2.7-6-6-6s-6,2.7-6,6c-0.6,0-1,0.4-1,1s0.4,1,1,1v1c-0.6,0-1,0.4-1,1     s0.4,1,1,1v9.4l-3-2V14c0.6,0,1-0.4,1-1s-0.4-1-1-1c0-1.7-1.3-3-3-3s-3,1.3-3,3v3c-0.6,0-1,0.4-1,1s0.4,1,1,1v1.4     c0,2,1,3.9,2.7,5l6.3,4.2V30c-0.6,0-1,0.4-1,1s0.4,1,1,1v3c-0.6,0-1,0.4-1,1s0.4,1,1,1v5H5c-0.6,0-1,0.4-1,1s0.4,1,1,1h34     c0.6,0,1-0.4,1-1S39.6,42,39,42z M23.5,3v5.2C23.2,8.3,23,8.6,23,9s0.2,0.7,0.5,0.8v8.3C23.4,18.1,23.2,18,23,18     c-0.6,0-1,0.4-1,1s0.4,1,1,1c0.2,0,0.4-0.1,0.5-0.2V42h-3V30.8c0.1,0.1,0.3,0.2,0.5,0.2c0.6,0,1-0.4,1-1s-0.4-1-1-1     c-0.2,0-0.4,0.1-0.5,0.2V14.8c0.1,0.1,0.3,0.2,0.5,0.2c0.6,0,1-0.4,1-1s-0.4-1-1-1c-0.2,0-0.4,0.1-0.5,0.2V7.8     C20.8,7.7,21,7.4,21,7s-0.2-0.7-0.5-0.8V3c0-0.3,0.1-0.5,0.2-0.8C21.1,2.1,21.5,2,22,2s0.9,0.1,1.3,0.2C23.4,2.5,23.5,2.7,23.5,3     z M18,27.1c0-0.3-0.2-0.6-0.4-0.8l-6.8-4.5C9.7,21,9,19.7,9,18.4V12c0-0.6,0.4-1,1-1s1,0.4,1,1v4c-0.6,0-1,0.4-1,1s0.4,1,1,1v0.4     c0,0.7,0.3,1.3,0.9,1.7l4.6,3c0.3,0.2,0.7,0.2,1,0c0.3-0.2,0.5-0.5,0.5-0.9V6c0-1.3,0.6-2.4,1.5-3.1c0,0,0,0.1,0,0.1v3.2     C19.2,6.3,19,6.6,19,7s0.2,0.7,0.5,0.8V42H18V27.1z"/></g></g></g><g id="sherif"/><g id="hat"/><g id="dreamcatcher"/><g id="door"/><g id="boot"/><g id="horseshoe"/><g id="tomahawk"/><g id="flask"/><g id="horse"/><g id="wanted"/><g id="pistol"/><g id="cowboy"/><g id="indian"/><g id="gallows"/><g id="bull_x5F_skull"/><g id="arrows"/><g id="wagon"/><g id="saloon"/><g id="pickaxe_x5F_shovel"/></svg>