<?xml version="1.0" ?><svg style="enable-background:new 0 0 44 44;" version="1.1" viewBox="0 0 44 44" xml:space="preserve" xmlns="http://www.w3.org/2000/svg" xmlns:xlink="http://www.w3.org/1999/xlink"><g id="cactus"/><g id="sherif"/><g id="hat"/><g id="dreamcatcher"/><g id="door"/><g id="boot"/><g id="horseshoe"/><g id="tomahawk"/><g id="flask"/><g id="horse"/><g id="wanted"/><g id="pistol"/><g id="cowboy"/><g id="indian"/><g id="gallows"/><g id="bull_x5F_skull"><g><path d="M22,31c-0.6,0-1,0.4-1,1v5c0,0.6,0.4,1,1,1s1-0.4,1-1v-5C23,31.4,22.6,31,22,31z"/><path d="M43,3c-0.6,0-1,0.4-1,1v1c0,2.8-2.2,5-5,5h-5c-0.6,0-1,0.4-1,1s0.4,1,1,1h5c1.8,0,3.4-0.7,4.6-1.8C40.7,13,38.1,15,35,15    h-3.8l-0.9-0.4C30.1,14.4,30,14.2,30,14v-1c0-1.7-1.3-3-3-3H17c-1.7,0-3,1.3-3,3v1c0,0.2-0.1,0.4-0.3,0.6L12.8,15H9    c-3.1,0-5.7-2-6.6-4.8C3.6,11.3,5.2,12,7,12h5c0.6,0,1-0.4,1-1s-0.4-1-1-1H7c-2.8,0-5-2.2-5-5V4c0-0.6-0.4-1-1-1S0,3.4,0,4v4    c0,5,4,9,9,9h3v6c0,0.3,0.2,0.6,0.4,0.8l1.6,1.1c0.7,0.4,1.1,1.1,1.3,1.9l2.4,11.8C18,40,19.2,41,20.6,41h2.7c1.4,0,2.7-1,2.9-2.4    l2.4-11.8c0.2-0.8,0.6-1.5,1.3-1.9l1.6-1.1c0.3-0.2,0.4-0.5,0.4-0.8v-6h3c5,0,9-4,9-9V4C44,3.4,43.6,3,43,3z M26.7,26.4l-2.4,11.8    c-0.1,0.5-0.5,0.8-1,0.8h-2.7c-0.5,0-0.9-0.3-1-0.8l-2.4-11.8c-0.3-1.3-1-2.4-2.1-3.1c0.2,0.1,0.5,0.2,0.7,0.2l1.8,0.5    c0.1,0,0.2,0,0.2,0c0.4,0,0.9-0.3,1-0.8c0.1-0.5-0.2-1.1-0.7-1.2l-1.8-0.5c-1-0.3-1.9-0.9-2.4-1.9v-3.1l0.6-0.3    C15.4,15.9,16,15,16,14v-1c0-0.6,0.4-1,1-1h4v5c0,0.6,0.4,1,1,1s1-0.4,1-1v-5h4c0.6,0,1,0.4,1,1v1c0,1,0.6,1.9,1.4,2.3l0.6,0.3    v3.1c-0.5,0.9-1.4,1.6-2.4,1.9L25.8,22c-0.5,0.1-0.9,0.7-0.7,1.2c0.1,0.5,0.5,0.8,1,0.8c0.1,0,0.2,0,0.2,0l1.8-0.5    c0.2-0.1,0.5-0.1,0.7-0.2C27.7,24,27,25.1,26.7,26.4z"/></g></g><g id="arrows"/><g id="wagon"/><g id="saloon"/><g id="pickaxe_x5F_shovel"/></svg>