<?xml version="1.0" ?><svg style="enable-background:new 0 0 44 44;" version="1.1" viewBox="0 0 44 44" xml:space="preserve" xmlns="http://www.w3.org/2000/svg" xmlns:xlink="http://www.w3.org/1999/xlink"><g id="cactus"/><g id="sherif"/><g id="hat"/><g id="dreamcatcher"><g><path d="M22,24c6.6,0,12-5.4,12-12S28.6,0,22,0S10,5.4,10,12S15.4,24,22,24z M12.3,14.2c1.4,1,3.3,2.2,4.9,2.6    c0.4,1.6,1.6,3.5,2.6,4.9C16,20.9,13.1,18,12.3,14.2z M17.1,9.3c0.3,1.3,1,2.2,1.6,2.7c0,0,0,0,0.1,0c-0.9,0.6-1.5,1.6-1.7,2.8    c-1.4-0.5-3.1-1.7-4.5-2.7C14,11,15.7,9.8,17.1,9.3z M22,2.6c1,1.4,2.2,3.1,2.7,4.5c-1.3,0.3-2.2,1-2.7,1.6c0,0,0,0,0,0.1    c-0.6-0.9-1.6-1.5-2.8-1.7C19.8,5.7,21,3.9,22,2.6z M31.4,12c-1.4,1-3.1,2.2-4.5,2.7c-0.3-1.3-1-2.2-1.6-2.7c0,0,0,0-0.1,0    c0.9-0.6,1.5-1.6,1.7-2.8C28.3,9.8,30.1,11,31.4,12z M22,21.4c-1-1.4-2.2-3.1-2.7-4.5c1.3-0.3,2.2-1,2.7-1.6c0,0,0,0,0-0.1    c0.6,0.9,1.6,1.5,2.8,1.7C24.2,18.3,23,20.1,22,21.4z M24.9,14.9c-0.9-0.2-1.5-0.8-1.7-1.7c0.4,0.1,0.7,0.3,0.9,0.5    C24.5,14,24.7,14.4,24.9,14.9z M23.2,10.9c0.1-0.4,0.3-0.7,0.5-0.9c0.3-0.4,0.7-0.7,1.2-0.8C24.7,10,24.1,10.6,23.2,10.9z     M19.1,9.1c0.9,0.2,1.5,0.8,1.7,1.7c-0.4-0.1-0.7-0.3-0.9-0.5C19.5,10,19.3,9.6,19.1,9.1z M20.8,13.1c-0.1,0.4-0.3,0.7-0.5,0.9    c-0.3,0.4-0.7,0.7-1.2,0.8C19.3,14,19.9,13.4,20.8,13.1z M24.2,21.7c1-1.4,2.2-3.3,2.6-4.9c1.6-0.4,3.5-1.6,4.9-2.6    C30.9,18,28,20.9,24.2,21.7z M31.7,9.8c-1.4-1-3.3-2.2-4.9-2.6c-0.4-1.6-1.6-3.5-2.6-4.9C28,3.1,30.9,6,31.7,9.8z M19.8,2.3    c-1,1.4-2.2,3.3-2.6,4.9c-1.6,0.4-3.5,1.6-4.9,2.6C13.1,6,16,3.1,19.8,2.3z"/><path d="M24.4,35.1L23,34.4V33c0.6,0,1-0.4,1-1s-0.4-1-1-1v-1c0.6,0,1-0.4,1-1s-0.4-1-1-1v-1c0-0.6-0.4-1-1-1s-1,0.4-1,1v1    c-0.6,0-1,0.4-1,1s0.4,1,1,1v1c-0.6,0-1,0.4-1,1s0.4,1,1,1v1.4l-1.4,0.7C19.2,35.3,19,35.6,19,36c0,4.3,2.1,7.4,2.2,7.6    c0.2,0.3,0.5,0.4,0.8,0.4s0.6-0.2,0.8-0.4c0.1-0.1,2.2-3.3,2.2-7.6C25,35.6,24.8,35.3,24.4,35.1z M22,40.8c-0.4-1-0.9-2.5-1-4.2    l1-0.5l1,0.5C22.9,38.3,22.4,39.8,22,40.8z"/><path d="M32.4,29.1L31,28.4V27c0.6,0,1-0.4,1-1s-0.4-1-1-1v-1c0-0.6-0.4-1-1-1s-1,0.4-1,1v1c-0.6,0-1,0.4-1,1s0.4,1,1,1v1.4    l-1.4,0.7C27.2,29.3,27,29.6,27,30c0,4.3,2.1,7.4,2.2,7.6c0.2,0.3,0.5,0.4,0.8,0.4s0.6-0.2,0.8-0.4c0.1-0.1,2.2-3.3,2.2-7.6    C33,29.6,32.8,29.3,32.4,29.1z M30,34.8c-0.4-1-0.9-2.5-1-4.2l1-0.5l1,0.5C30.9,32.3,30.4,33.8,30,34.8z"/><path d="M16.4,29.1L15,28.4V27c0.6,0,1-0.4,1-1s-0.4-1-1-1v-1c0-0.6-0.4-1-1-1s-1,0.4-1,1v1c-0.6,0-1,0.4-1,1s0.4,1,1,1v1.4    l-1.4,0.7C11.2,29.3,11,29.6,11,30c0,4.3,2.1,7.4,2.2,7.6c0.2,0.3,0.5,0.4,0.8,0.4s0.6-0.2,0.8-0.4c0.1-0.1,2.2-3.3,2.2-7.6    C17,29.6,16.8,29.3,16.4,29.1z M14,34.8c-0.4-1-0.9-2.5-1-4.2l1-0.5l1,0.5C14.9,32.3,14.4,33.8,14,34.8z"/></g></g><g id="door"/><g id="boot"/><g id="horseshoe"/><g id="tomahawk"/><g id="flask"/><g id="horse"/><g id="wanted"/><g id="pistol"/><g id="cowboy"/><g id="indian"/><g id="gallows"/><g id="bull_x5F_skull"/><g id="arrows"/><g id="wagon"/><g id="saloon"/><g id="pickaxe_x5F_shovel"/></svg>