<?xml version="1.0" ?><svg style="enable-background:new 0 0 44 44;" version="1.1" viewBox="0 0 44 44" xml:space="preserve" xmlns="http://www.w3.org/2000/svg" xmlns:xlink="http://www.w3.org/1999/xlink"><path d="M37,13v-2c0-1.7-1.3-3-3-3h-5c-0.6,0-1,0.4-1,1s0.4,1,1,1h5c0.6,0,1,0.4,1,1v2H9v-2c0-0.6,0.4-1,1-1h9h6c0.6,0,1-0.4,1-1    V7h1c0.6,0,1-0.4,1-1V1c0-0.6-0.4-1-1-1H17c-0.6,0-1,0.4-1,1v1h-4C9.8,2,8,3.8,8,6c0,0.9,0.3,1.6,0.7,2.3C7.7,8.8,7,9.8,7,11v2    c-0.6,0-1,0.4-1,1v24c0,0.6,0.4,1,1,1h25c0.6,0,1-0.4,1-1s-0.4-1-1-1H8v-1c0.6,0,1-0.4,1-1s-0.4-1-1-1V18c0.6,0,1-0.4,1-1    s-0.4-1-1-1v-1h28v1c-0.6,0-1,0.4-1,1s0.4,1,1,1v16c-0.6,0-1,0.4-1,1s0.4,1,1,1v1c-0.6,0-1,0.4-1,1v3c0,0.6-0.4,1-1,1H10    c-0.6,0-1-0.4-1-1c0-0.6-0.4-1-1-1s-1,0.4-1,1c0,1.7,1.3,3,3,3h24c1.7,0,3-1.3,3-3v-2c0.6,0,1-0.4,1-1V14C38,13.4,37.6,13,37,13z     M24,8h-4V7h4V8z M18,2h8v3h-1h-6h-1V2z M12,4h4v2c0,0.6,0.4,1,1,1h1v1h-6c-1.1,0-2-0.9-2-2S10.9,4,12,4z"/><path d="M14,16h-2c-0.6,0-1,0.4-1,1s0.4,1,1,1h2c0.6,0,1-0.4,1-1S14.6,16,14,16z"/><path d="M20,16h-2c-0.6,0-1,0.4-1,1s0.4,1,1,1h2c0.6,0,1-0.4,1-1S20.6,16,20,16z"/><path d="M26,16h-2c-0.6,0-1,0.4-1,1s0.4,1,1,1h2c0.6,0,1-0.4,1-1S26.6,16,26,16z"/><path d="M30,18h2c0.6,0,1-0.4,1-1s-0.4-1-1-1h-2c-0.6,0-1,0.4-1,1S29.4,18,30,18z"/><path d="M14,34h-2c-0.6,0-1,0.4-1,1s0.4,1,1,1h2c0.6,0,1-0.4,1-1S14.6,34,14,34z"/><path d="M20,34h-2c-0.6,0-1,0.4-1,1s0.4,1,1,1h2c0.6,0,1-0.4,1-1S20.6,34,20,34z"/><path d="M26,34h-2c-0.6,0-1,0.4-1,1s0.4,1,1,1h2c0.6,0,1-0.4,1-1S26.6,34,26,34z"/><path d="M30,36h2c0.6,0,1-0.4,1-1s-0.4-1-1-1h-2c-0.6,0-1,0.4-1,1S29.4,36,30,36z"/></svg>