<?xml version="1.0" ?><svg style="enable-background:new 0 0 44 44;" version="1.1" viewBox="0 0 44 44" xml:space="preserve" xmlns="http://www.w3.org/2000/svg" xmlns:xlink="http://www.w3.org/1999/xlink"><g id="cactus"/><g id="sherif"/><g id="hat"/><g id="dreamcatcher"/><g id="door"/><g id="boot"/><g id="horseshoe"/><g id="tomahawk"/><g id="flask"/><g id="horse"/><g id="wanted"/><g id="pistol"/><g id="cowboy"/><g id="indian"/><g id="gallows"><g><path d="M29,21c0.1,0,0.2,0,0.3-0.1l6-2c0.5-0.2,0.8-0.7,0.6-1.3c-0.2-0.5-0.7-0.8-1.3-0.6l-6,2c-0.5,0.2-0.8,0.7-0.6,1.3    C28.2,20.7,28.6,21,29,21z"/><path d="M33.9,24.2c-0.4,0.3-0.5,1-0.2,1.4c2.8,3.6,4.3,6.6,4.3,8.3c0,4.5-3.8,5.1-6,5.1c-2.8,0-6-1.3-6-5.1c0-3,4.6-8.8,6.6-11    l2.7-0.9c0.5-0.2,0.8-0.7,0.6-1.3c-0.2-0.5-0.7-0.8-1.3-0.6l-6,2c-0.5,0.2-0.8,0.7-0.6,1.3c0.1,0.4,0.5,0.7,0.9,0.7c0,0,0,0,0,0    c-2.1,2.7-5,6.9-5,9.9c0,4.9,4.1,7.1,8,7.1c5,0,8-2.7,8-7.1c0-2.2-1.6-5.4-4.7-9.5C34.9,24,34.3,23.9,33.9,24.2z"/><path d="M41,1h-8c0-0.6-0.4-1-1-1s-1,0.4-1,1h-1c0-0.6-0.4-1-1-1s-1,0.4-1,1h-1c0-0.6-0.4-1-1-1s-1,0.4-1,1H3C2.4,1,2,1.4,2,2v4    c0,0.6,0.4,1,1,1h3v36c0,0.6,0.4,1,1,1s1-0.4,1-1V7h2v6v6v24c0,0.6,0.4,1,1,1s1-0.4,1-1V19.4L22.5,7H25c0,0.6,0.4,1,1,1s1-0.4,1-1    h1c0,0.6,0.4,1,1,1s1-0.4,1-1h1v5.6c-0.6-0.3-1.3-0.6-2-0.6c-0.6,0-1,0.4-1,1s0.4,1,1,1c0.9,0,1.6,0.6,1.9,1.3l-2.2,0.7    c-0.5,0.2-0.8,0.7-0.6,1.3c0.1,0.4,0.5,0.7,0.9,0.7c0.1,0,0.2,0,0.3-0.1l6-2c0.5-0.2,0.8-0.7,0.6-1.3c-0.2-0.5-0.7-0.8-1.3-0.6    L33,14.6V7h8c0.6,0,1-0.4,1-1V2C42,1.4,41.6,1,41,1z M14.8,7L12,10.3V7H14.8z M12,16.3v-2.9L17.5,7h2.4L12,16.3z M22,5h-5h-6H7H4    V3h21v2H22z M27,5V3h1v2H27z M30,5V3h1v2H30z M40,5h-7V3h7V5z"/></g></g><g id="bull_x5F_skull"/><g id="arrows"/><g id="wagon"/><g id="saloon"/><g id="pickaxe_x5F_shovel"/></svg>