<?xml version="1.0" ?><svg style="enable-background:new 0 0 44 44;" version="1.1" viewBox="0 0 45 45" xml:space="preserve" xmlns="http://www.w3.org/2000/svg" xmlns:xlink="http://www.w3.org/1999/xlink"><circle cx="33" cy="14" r="1"/><path d="M30.5,28.5c-1.3-1.1-2-2.8-1.9-4.5c0-0.6-0.4-1-1-1c-0.6,0-1,0.4-1,1c-0.1,2.3,0.9,4.5,2.6,6c1.4,1.2,2.5,2.8,3.1,4.5    C30.6,33,28.4,32,26,32c-0.6,0-1,0.4-1,1s0.4,1,1,1c3.9,0,7,3.1,7,7c0,0.6,0.4,1,1,1s1-0.4,1-1v-2.4C35,34.8,33.3,31.1,30.5,28.5z    "/><path d="M29,8c0-0.6-0.4-1-1-1c-8.8,0-16,7.2-16,16v3.7c0,3-1.5,5.8-3.9,7.6C6.5,35.4,4.6,36,2.7,36H1c-0.6,0-1,0.4-1,1s0.4,1,1,1    h1.7c2.4,0,4.6-0.7,6.6-2.1c3-2.1,4.7-5.6,4.7-9.2V23c0-7.7,6.3-14,14-14C28.6,9,29,8.6,29,8z"/><path d="M43.5,19.9l-4.7-7.3c-1.4-2.2-3.4-4-5.7-5.1c-0.2-0.1-0.3-0.3-0.4-0.4L32,2.8C31.9,2.4,31.5,2,31,2h-3    c-2.7,0-5.3,0.4-7.5,1.3C12.4,6.4,7,14.3,7,23v1c0,3.3-2.7,6-6,6c-0.6,0-1,0.4-1,1s0.4,1,1,1c4.4,0,8-3.6,8-8v-1    c0-7.8,4.9-15,12.2-17.8C23.2,4.4,25.5,4,28,4h2.2l0.6,3.5c0,0.1,0,0.1,0.1,0.2c0.3,0.7,0.8,1.2,1.4,1.6c2,1,3.7,2.5,4.9,4.4    l4.7,7.3c0.1,0.2,0.2,0.4,0.2,0.6c0,0.5-0.3,0.9-0.7,1.1l-1.7,0.9c-0.3,0.2-0.7,0.1-1-0.1l-4-2.7c-0.9-0.6-1.8-0.9-2.9-0.9    c-0.8,0-1.7-0.3-2.3-0.9l-1.8-1.8c-0.4-0.4-1-0.4-1.4,0s-0.4,1,0,1.4l1.8,1.8c1,1,2.3,1.5,3.7,1.5c0.6,0,1.2,0.2,1.8,0.5l4,2.7    c0.9,0.6,2,0.7,3,0.2l1.7-0.9c1.1-0.5,1.8-1.6,1.8-2.9C44,21,43.8,20.4,43.5,19.9z"/></svg>