<?xml version="1.0" ?><svg style="enable-background:new 0 0 44 44;" version="1.1" viewBox="0 0 44 44" xml:space="preserve" xmlns="http://www.w3.org/2000/svg" xmlns:xlink="http://www.w3.org/1999/xlink"><g id="cactus"/><g id="sherif"/><g id="hat"/><g id="dreamcatcher"/><g id="door"/><g id="boot"/><g id="horseshoe"/><g id="tomahawk"/><g id="flask"/><g id="horse"/><g id="wanted"/><g id="pistol"/><g id="cowboy"/><g id="indian"><g><circle cx="19" cy="14" r="1"/><circle cx="25" cy="14" r="1"/><path d="M27.5,21.1c-0.5-0.3-1.1-0.1-1.4,0.4C25.3,23,23.7,24,22,24s-3.3-1-4.1-2.5c-0.3-0.5-0.9-0.7-1.4-0.4    c-0.5,0.3-0.7,0.9-0.4,1.4c1.2,2.2,3.4,3.5,5.9,3.5s4.7-1.3,5.9-3.5C28.1,22,28,21.4,27.5,21.1z"/><path d="M31.7,32.3c-0.4-0.4-1-0.4-1.4,0C28.6,34,25.5,35,22,35s-6.6-1-8.3-2.7c-0.4-0.4-1-0.4-1.4,0c-0.4,0.4-0.4,1,0,1.4    c2,2,5.7,3.3,9.7,3.3s7.7-1.3,9.7-3.3C32.1,33.3,32.1,32.7,31.7,32.3z"/><path d="M21,22h2c0.6,0,1-0.4,1-1s-0.4-1-1-1h-2c-0.6,0-1,0.4-1,1S20.4,22,21,22z"/><path d="M36.9,29.7c0-0.1,0-0.1-0.1-0.2l-0.4-0.8c-1-1.9-1.5-4.1-1.5-6.3V20c0-3.3-1.1-6.6-3-9.3V7c0-3.9-3.6-7-8-7    c-0.8,0-1.5,0.3-2,0.8C21.5,0.3,20.8,0,20,0c-4.4,0-8,3.1-8,7v3.7c-1.9,2.7-3,6-3,9.3v2.5c0,2.2-0.5,4.3-1.5,6.3l-0.4,0.8    c0,0.1,0,0.1-0.1,0.2C5.2,30.5,4,32.3,4,34.3V41c0,1.7,1.3,3,3,3h15c0.6,0,1-0.4,1-1v-3c0-0.6-0.4-1-1-1s-1,0.4-1,1v2H7    c-0.6,0-1-0.4-1-1v-6.7c0-1.5,1-2.7,2.5-3l7.2-1.3c1.5,1.2,3.8,1.9,6.3,1.9s4.8-0.7,6.3-1.9l7.2,1.3c1.4,0.3,2.5,1.5,2.5,3V41    c0,0.6-0.4,1-1,1H26c-0.6,0-1,0.4-1,1s0.4,1,1,1h11c1.7,0,3-1.3,3-3v-6.7C40,32.3,38.8,30.5,36.9,29.7z M14,10V8h16v2H14z M20,2    c0.6,0,1,0.4,1,1v1c0,0.6,0.4,1,1,1s1-0.4,1-1V3c0-0.6,0.4-1,1-1c2.9,0,5.3,1.7,5.9,4H14.1C14.7,3.7,17.1,2,20,2z M28.2,28    c-0.3-0.1-0.7,0-0.9,0.3c-1,1-3.1,1.7-5.3,1.7s-4.3-0.7-5.3-1.7c-0.2-0.2-0.6-0.3-0.9-0.3l-6.3,1.1c1-2.1,1.5-4.4,1.5-6.7V20    c0-2.8,0.9-5.7,2.5-8H15l-1.2,5.9C13.3,20.5,13,23.3,13,26c0,0.6,0.4,1,1,1s1-0.4,1-1c0-2.6,0.3-5.2,0.8-7.7l1.2-6.1    c0-0.1,0-0.1,0-0.2h10c0,0.1,0,0.1,0,0.2l1.2,6.1c0.5,2.5,0.8,5.1,0.8,7.7c0,0.6,0.4,1,1,1s1-0.4,1-1c0-2.7-0.3-5.5-0.8-8.1L29,12    h1.5c1.6,2.3,2.5,5.2,2.5,8v2.5c0,2.3,0.5,4.6,1.5,6.7L28.2,28z"/></g></g><g id="gallows"/><g id="bull_x5F_skull"/><g id="arrows"/><g id="wagon"/><g id="saloon"/><g id="pickaxe_x5F_shovel"/></svg>