<?xml version="1.0" ?><svg style="enable-background:new 0 0 44 44;" version="1.1" viewBox="0 0 44 44" xml:space="preserve" xmlns="http://www.w3.org/2000/svg" xmlns:xlink="http://www.w3.org/1999/xlink"><path d="M44,25.8l-0.6-3.1c-0.7-3.6-2.2-6.9-4.4-9.8c0-0.1,0-0.3-0.1-0.4l0.2-0.2c0.6-0.6,0.9-1.4,0.9-2.2C40,8.4,38.6,7,36.9,7c-0.8,0-1.6,0.3-2.2,0.9l-0.2,0.2C34.3,8.1,34.2,8,34.1,8c-2.9-2.2-6.2-3.7-9.8-4.4L21.2,3C21.1,3,21,3,21,3c-0.4,0-0.7,0.2-0.9,0.6c-0.2,0.4,0,0.9,0.3,1.2l1.2,0.9c2.7,2,5.4,4.1,7.8,6.4l-0.2,0.2c-0.3,0.3-0.4,0.8-0.2,1.2L22,20.6L17.4,16l2.3-2.3c0.4-0.4,0.4-1,0-1.4l-7.1-7.1C11.2,3.8,9.3,3,7.4,3C3.3,3,0,6.3,0,10.4c0,2,0.8,3.8,2.2,5.2l7.1,7.1c0.4,0.4,1,0.4,1.4,0l3-3l2.3-2.3l2.6,2.6L17,21.6l-0.3-0.3c-0.4-0.4-1-0.4-1.4,0s-0.4,1,0,1.4l2.3,2.3l-0.3,0.3L6.9,35.7C6.3,36.3,6,37.1,6,37.9C6,39.6,7.4,41,9.1,41c0.8,0,1.6-0.3,2.2-0.9l8.4-8.4c0.4-0.4,0.4-1,0-1.4s-1-0.4-1.4,0l-8.4,8.4C9.7,38.9,9.4,39,9.1,39C8.5,39,8,38.5,8,37.9c0-0.3,0.1-0.6,0.3-0.8l10.4-10.4l0.3-0.3l13.7,13.7c0.6,0.6,1.4,0.9,2.2,0.9c1.7,0,3.1-1.4,3.1-3.1c0-0.8-0.3-1.6-0.9-2.2L26.4,25l5.3-5.3c0.4-0.4,0.4-1,0-1.4s-1-0.4-1.4,0L25,23.6L23.4,22l7.1-7.1l2.8,2.8c0.2,0.2,0.5,0.3,0.7,0.3s0.5-0.1,0.7-0.3l0.2-0.2c2.3,2.5,4.4,5.1,6.4,7.8l0.9,1.2c0.2,0.3,0.5,0.4,0.8,0.4c0.1,0,0.3,0,0.4-0.1c0.4-0.2,0.6-0.5,0.6-0.9C44,25.9,44,25.9,44,25.8z M10,20.6l-6.4-6.4c-1-1-1.6-2.4-1.6-3.8C2,7.4,4.4,5,7.4,5c1.4,0,2.8,0.6,3.8,1.6l6.4,6.4l-2.3,2.3c0,0,0,0,0,0l-0.8,0.8l-3.3-3.3c-0.4-0.4-1-0.4-1.4,0s-0.4,1,0,1.4l3.3,3.3l-0.8,0.8L10,20.6z M36,37.9c0,0.6-0.5,1.1-1.1,1.1c-0.3,0-0.6-0.1-0.8-0.3L18.4,23l1.6-1.6l15.7,15.7C35.9,37.3,36,37.6,36,37.9zM36.1,9.3C36.3,9.1,36.6,9,36.9,9c0.6,0,1.1,0.5,1.1,1.1c0,0.3-0.1,0.6-0.3,0.8l-0.2,0.2l-1.6-1.6L36.1,9.3z M25.3,5.9c2.5,0.7,4.9,1.8,7,3.3l-1.4,1.4C29.1,9,27.3,7.4,25.3,5.9zM34,15.6L31.4,13l2.6-2.6l2.6,2.6L34,15.6zM36.3,16.1l1.4-1.4c1.5,2.1,2.6,4.5,3.3,7C39.6,19.7,38,17.9,36.3,16.1z"/></svg>