<?xml version="1.0" ?><svg style="enable-background:new 0 0 44 44;" version="1.1" viewBox="0 0 44 44" xml:space="preserve" xmlns="http://www.w3.org/2000/svg" xmlns:xlink="http://www.w3.org/1999/xlink"><path d="M17,20h5c0.6,0,1-0.4,1-1v-8c0-0.6-0.4-1-1-1h-5c-2.8,0-5,2.2-5,5S14.2,20,17,20z M17,12h4v2h-4c-0.6,0-1,0.4-1,1    s0.4,1,1,1h4v2h-4c-1.7,0-3-1.3-3-3S15.3,12,17,12z"/><path d="M43,8h-1V7c0-0.6-0.4-1-1-1s-1,0.4-1,1v1H29c-0.6,0-1,0.4-1,1s0.4,1,1,1h13v4H27h-1V8c0-0.6-0.4-1-1-1H12.5    c-1.7,0-3,1.3-3,3v0.5c0,1-0.3,2-0.8,2.8c0,0,0,0,0,0l-2-2C6.5,11.1,6.3,11,6,11H4c-0.6,0-1,0.4-1,1s0.4,1,1,1h1.6l1.7,1.7    c0,0,0.1,0.1,0.1,0.1C6.5,15.5,5.3,16,4,16c-0.5,0-0.9,0.3-1,0.8L0.1,32.5C0,32.8,0,33.1,0,33.3C0,35.9,2.1,38,4.7,38H11    c1.7,0,3-1.3,3-3v-3c0-0.6-0.4-1-1-1s-1,0.4-1,1v3c0,0.6-0.4,1-1,1H4.7C3.2,36,2,34.8,2,33.3c0-0.2,0-0.3,0-0.5L4.8,18    c3.7-0.4,6.7-3.6,6.7-7.5V10c0-0.6,0.4-1,1-1H24v6c0,0.6,0.4,1,1,1h1l0,1.1c-1.7,0.4-3,2-3,3.9c0,0.6-0.4,1-1,1h-5    c-2.2,0-4.1,1.6-4.5,3.8l-0.5,3c0,0.3,0,0.6,0.2,0.8S12.7,30,13,30h3c2.4,0,4.5-1.4,5.5-3.6c0.2-0.5,0-1.1-0.5-1.3    c-0.5-0.2-1.1,0-1.3,0.5C19,27.1,17.6,28,16,28h-1.8l0.3-1.9c0.1-0.6,0.4-1,0.7-1.4l0.9,1.7c0.2,0.4,0.5,0.6,0.9,0.6    c0.1,0,0.3,0,0.4-0.1c0.5-0.2,0.7-0.8,0.4-1.3L17.1,24H22c1.7,0,3-1.3,3-3c0-1.1,0.9-2,2-2h7c0.3,0,0.6-0.2,0.8-0.4l1.7-2.6H43    c0.6,0,1-0.4,1-1V9C44,8.4,43.6,8,43,8z M33.5,17H28v-1h6.1L33.5,17z"/><path d="M7.2,22c-0.5-0.1-1.1,0.2-1.2,0.8l-2,10c-0.1,0.5,0.2,1.1,0.8,1.2c0.1,0,0.1,0,0.2,0c0.5,0,0.9-0.3,1-0.8l2-10    C8.1,22.7,7.7,22.1,7.2,22z"/><path d="M7.8,34c0.1,0,0.1,0,0.2,0c0.5,0,0.9-0.3,1-0.8l2-10c0.1-0.5-0.2-1.1-0.8-1.2c-0.5-0.1-1.1,0.2-1.2,0.8l-2,10    C6.9,33.3,7.3,33.9,7.8,34z"/></svg>