<?xml version="1.0" ?><svg style="enable-background:new 0 0 44 44;" version="1.1" viewBox="0 0 44 44" xml:space="preserve" xmlns="http://www.w3.org/2000/svg" xmlns:xlink="http://www.w3.org/1999/xlink"><circle cx="22" cy="6" r="2"/><path d="M43,38h-1V19h1c0.3,0,0.7-0.2,0.9-0.5s0.2-0.7,0-1l-2-4C41.7,13.2,41.4,13,41,13H3c-0.4,0-0.7,0.2-0.9,0.6l-2,4    c-0.2,0.3-0.1,0.7,0,1S0.7,19,1,19h1v19H1c-0.6,0-1,0.4-1,1v4c0,0.6,0.4,1,1,1h10h22h10c0.6,0,1-0.4,1-1v-4C44,38.4,43.6,38,43,38    z M40,20.6L38.4,19H40V20.6z M3.6,15h36.8l1,2H2.6L3.6,15z M5.6,19L4,20.6V19H5.6z M4,23.4l2-2V35c0,0.6,0.4,1,1,1s1-0.4,1-1V19.4    L8.4,19h27.2l0.4,0.4V35c0,0.6,0.4,1,1,1s1-0.4,1-1V21.4l2,2V38h-7h-3V22c0-0.6-0.4-1-1-1H15c-0.6,0-1,0.4-1,1v16h-3H4V23.4z     M16,34v-5h1.2c1.4,0,2.7-0.2,3.8-0.6V34H16z M23,28.4c1.2,0.4,2.5,0.6,3.8,0.6H28v5h-5V28.4z M28,27h-1.2c-1.6,0-3.2-0.3-4.4-0.9    c0,0,0,0,0,0c0,0,0,0-0.1,0c-0.1,0-0.1,0-0.2,0c-0.1,0-0.1,0-0.2,0c0,0,0,0,0,0c0,0,0,0,0,0c0,0-0.1,0-0.1,0c-0.1,0-0.1,0-0.2,0    c0,0,0,0-0.1,0c0,0,0,0,0,0c-1.1,0.6-2.7,0.9-4.4,0.9H16v-4h12V27z M16,36h12v2H16V36z M2,40h8v2H2V40z M12,42v-2h3h14h3v2H12z     M42,42h-8v-2h8V42z"/><path d="M16,10c0,0.6,0.4,1,1,1h10c0.6,0,1-0.4,1-1s-0.4-1-1-1H17C16.4,9,16,9.4,16,10z"/><path d="M7,11c0.6,0,1-0.4,1-1V6h2.5c2.9,0,5.6-1.5,7.1-4h8.8c1.5,2.5,4.1,4,7.1,4H36v4c0,0.6,0.4,1,1,1s1-0.4,1-1V5    c0-0.6-0.4-1-1-1h-3.5c-2.4,0-4.5-1.3-5.6-3.4C27.7,0.2,27.4,0,27,0H17c-0.4,0-0.7,0.2-0.9,0.6C15,2.7,12.9,4,10.5,4H7    C6.4,4,6,4.4,6,5v5C6,10.6,6.4,11,7,11z"/></svg>