<?xml version="1.0" ?><svg style="enable-background:new 0 0 44 44;" version="1.1" viewBox="0 0 45 45" xml:space="preserve" xmlns="http://www.w3.org/2000/svg" xmlns:xlink="http://www.w3.org/1999/xlink"><polygon points="22.9,19.1 25,19.1 24,17.4 25,15.8 22.9,15.8 22,13.9 21.1,15.8 19,15.8 20,17.4 19,19.1 21.1,19.1 22,21   "/><path d="M42.4,21.8c-1-0.9-2.4-1.3-3.8-1L36.8,21c-0.5,0.1-0.9,0.6-0.8,1.2s0.6,0.9,1.2,0.8l1.7-0.3c0.8-0.1,1.6,0.1,2.2,0.6    c0.6,0.5,0.9,1.2,0.9,2c0,0.8-0.4,1.6-1,2.1c-10.8,8.8-27.1,8.8-38,0c-0.6-0.5-1-1.3-1-2.1c0-0.8,0.3-1.5,0.9-2    c0.6-0.5,1.4-0.7,2.2-0.6L6.8,23c0.5,0.1,1.1-0.3,1.2-0.8S7.7,21.1,7.2,21l-1.7-0.3c-1.4-0.2-2.7,0.2-3.8,1    c-1,0.9-1.6,2.2-1.6,3.6c0,1.4,0.6,2.7,1.8,3.7c5.8,4.7,13,7,20.2,7s14.5-2.3,20.2-7c1.1-0.9,1.8-2.2,1.8-3.7    C44,23.9,43.4,22.7,42.4,21.8z"/><path d="M10,26h9.6l-2.3,2.3c-0.4,0.4-0.4,1,0,1.4c0.2,0.2,0.5,0.3,0.7,0.3s0.5-0.1,0.7-0.3l3.3-3.3l3.3,3.3    c0.2,0.2,0.5,0.3,0.7,0.3s0.5-0.1,0.7-0.3c0.4-0.4,0.4-1,0-1.4L24.4,26H34c0.6,0,1-0.4,1-1s-0.4-1-1-1h0c-0.1-3-0.3-6.1-0.9-9.1    l-0.4-2c-0.5-2.9-3-4.9-5.9-4.9h-9.7c-2.9,0-5.4,2.1-5.9,4.9l-0.4,2c-0.5,3-0.8,6.1-0.9,9.1h0c-0.6,0-1,0.4-1,1S9.4,26,10,26z     M12.9,15.3l0.4-2c0.3-1.9,2-3.3,3.9-3.3h9.7c1.9,0,3.6,1.4,3.9,3.3l0.4,2c0.5,2.9,0.8,5.8,0.9,8.7H12    C12.1,21.1,12.4,18.1,12.9,15.3z"/></svg>