<?xml version="1.0" ?><svg style="enable-background:new 0 0 44 44;" version="1.1" viewBox="0 0 44 44" xml:space="preserve" xmlns="http://www.w3.org/2000/svg" xmlns:xlink="http://www.w3.org/1999/xlink"><g id="cactus"/><g id="sherif"/><g id="hat"/><g id="dreamcatcher"/><g id="door"/><g id="boot"/><g id="horseshoe"/><g id="tomahawk"><g><path d="M28.4,33.1L27,32.4V31c0.6,0,1-0.4,1-1s-0.4-1-1-1v-1c0.6,0,1-0.4,1-1s-0.4-1-1-1v-3c0-0.6-0.4-1-1-1s-1,0.4-1,1v3    c-0.6,0-1,0.4-1,1s0.4,1,1,1v1c-0.6,0-1,0.4-1,1s0.4,1,1,1v1.4l-1.4,0.7C23.2,33.3,23,33.6,23,34c0,4.3,2.1,7.4,2.2,7.6    c0.2,0.3,0.5,0.4,0.8,0.4s0.6-0.2,0.8-0.4c0.1-0.1,2.2-3.3,2.2-7.6C29,33.6,28.8,33.3,28.4,33.1z M26,38.8c-0.4-1-0.9-2.5-1-4.2    l1-0.5l1,0.5C26.9,36.3,26.4,37.8,26,38.8z"/><path d="M43.7,21.3l-7-7c-0.4-0.4-1-0.4-1.4,0s-0.4,1,0,1.4l3.3,3.3c-1.5,1.5-3.3,2.6-5.3,3.3c-0.4-2.4-1.5-4.6-3.1-6.5l0.3-2.4    l3.7-0.4c0.5-0.1,0.9-0.6,0.9-1.1c0-0.1-0.1-0.2-0.1-0.4l2.2-2.2C37.7,8.7,38,8,38,7.1C38,5.4,36.6,4,34.9,4    c-0.8,0-1.6,0.3-2.2,0.9l-2.2,2.2C30.4,7.1,30.2,7,30.1,7c-0.2,0-0.4,0-0.6,0.1L26.4,4l0.3-0.3c0.4-0.4,0.4-1,0-1.4s-1-0.4-1.4,0    l-1,1l-4,4l-1,1c-0.4,0.4-0.4,1,0,1.4C19.5,9.9,19.7,10,20,10s0.5-0.1,0.7-0.3L21,9.4l3.1,3.1C24,12.7,24,12.9,24,13.1    c0,0.1,0.1,0.2,0.1,0.4l-6.8,6.8c-0.2,0.2-0.3,0.6-0.3,0.9l1,4c0,0.1,0.1,0.1,0.1,0.2L3.9,39.7C3.7,39.9,3.4,40,3.1,40    C2.5,40,2,39.5,2,38.9c0-0.3,0.1-0.6,0.3-0.8l13.4-13.4c0.4-0.4,0.4-1,0-1.4c-0.4-0.4-1-0.4-1.4,0L0.9,36.7C0.3,37.3,0,38,0,38.9    C0,40.6,1.4,42,3.1,42c0.8,0,1.6-0.3,2.2-0.9l23.2-23.2c0.1,0.1,0.2,0.1,0.4,0.1c0,0,0.1,0,0.1,0c0.1,0,0.2,0,0.3-0.1    c2,2.8,2.7,6.4,1.7,9.8c-0.1,0.3,0,0.7,0.2,0.9c0.2,0.2,0.5,0.3,0.8,0.3c0,0,0.1,0,0.1,0l0.7-0.1c4.3-0.6,8.2-2.8,11-6.3    C44.1,22.2,44.1,21.7,43.7,21.3z M25.7,17.8l-0.6-2.5l0.9-0.9l1.6,1.6L25.7,17.8z M22.7,20.8l-0.6-2.5l1.4-1.4l0.6,2.3    c0,0.1,0.1,0.1,0.1,0.2L22.7,20.8z M28.3,13.9l-0.3-0.3l0.3,0L28.3,13.9z M30.7,11.1l0.3,0.3l-0.3,0L30.7,11.1z M34.1,6.3    C34.3,6.1,34.6,6,34.9,6C35.5,6,36,6.5,36,7.1c0,0.3-0.1,0.6-0.3,0.8L33,10.6l-1.3-1.3L31.4,9L34.1,6.3z M25,5.4l3.9,3.9l-0.3,2.3    l-2.3,0.3L22.4,8L25,5.4z M19.1,21.3l1.4-1.4l0.6,2.3c0,0.1,0.1,0.1,0.1,0.2l-1.4,1.4L19.1,21.3z M33.3,26.8    c0.1-0.8,0.2-1.6,0.2-2.5c2.5-0.8,4.8-2.1,6.6-3.9l1.6,1.6C39.4,24.5,36.5,26.2,33.3,26.8z"/></g></g><g id="flask"/><g id="horse"/><g id="wanted"/><g id="pistol"/><g id="cowboy"/><g id="indian"/><g id="gallows"/><g id="bull_x5F_skull"/><g id="arrows"/><g id="wagon"/><g id="saloon"/><g id="pickaxe_x5F_shovel"/></svg>