<?xml version="1.0" ?><svg style="enable-background:new 0 0 44 44;" version="1.1" viewBox="0 0 44 44" xml:space="preserve" xmlns="http://www.w3.org/2000/svg" xmlns:xlink="http://www.w3.org/1999/xlink"><path d="M29.9,15h0.9c0.6,0,1.2,0.2,1.2,0.6c0,0.2-0.1,0.3-0.3,0.5c-5.5,3.8-13.9,3.8-19.4,0C12.1,16,12,15.8,12,15.6    c0-0.4,0.6-0.6,1.2-0.6h0.9c0.6,0,1-0.4,1-1s-0.4-1-1-1h-0.9c-1.9,0-3.2,1.1-3.2,2.6c0,0.8,0.4,1.6,1.2,2.1c2,1.4,4.4,2.4,6.9,2.8    C18,20.7,18,20.9,18,21c0,0.6,0.4,1,1,1c0.6,0,1-0.4,1-1c0,0,0-0.1,0-0.1c0.7,0.1,1.3,0.1,2,0.1s1.4,0,2-0.1c0,0,0,0.1,0,0.1    c0,0.6,0.4,1,1,1c0.6,0,1-0.4,1-1c0-0.1,0-0.3-0.1-0.4c2.5-0.5,4.9-1.4,6.9-2.8c0.7-0.5,1.2-1.3,1.2-2.1c0-1.5-1.4-2.6-3.2-2.6    h-0.9c-0.6,0-1,0.4-1,1S29.3,15,29.9,15z"/><circle cx="9" cy="4" r="1"/><circle cx="35" cy="4" r="1"/><circle cx="9" cy="40" r="1"/><path d="M23,27c0.6,0,1-0.4,1-1s-0.4-1-1-1h-2c-0.6,0-1,0.4-1,1s0.4,1,1,1H23z"/><path d="M29.1,21c-0.6,0-1,0.4-1.1,0.9l-0.2,2.7C27.6,27.1,25.1,29,22,29s-5.6-1.9-5.8-4.4L16,21.9c0-0.5-0.5-1-1.1-0.9    c-0.6,0-1,0.5-0.9,1.1l0.2,2.7c0.3,3.5,3.7,6.2,7.8,6.2s7.5-2.7,7.8-6.2l0.2-2.7C30,21.5,29.6,21,29.1,21z"/><path d="M16.8,11.4L16,15.8c-0.1,0.5,0.3,1.1,0.8,1.2c0.5,0.1,1.1-0.3,1.2-0.8l0.7-4.5c0.1-0.5,0.7-0.9,1.2-0.6l1.6,0.8    c0.3,0.1,0.6,0.1,0.9,0l1.6-0.8c0.5-0.2,1.1,0.1,1.2,0.6l0.5,3.3H21c-0.6,0-1,0.4-1,1s0.4,1,1,1h6c0,0,0,0,0,0c0.1,0,0.1,0,0.2,0    c0.5-0.1,0.9-0.6,0.8-1.2l-0.7-4.5C27,10,25.8,9,24.4,9c-0.4,0-0.9,0.1-1.3,0.3L22,9.9l-1.2-0.6C20.4,9.1,20,9,19.6,9    C18.2,9,17,10,16.8,11.4z"/><path d="M39,9V1c0-0.6-0.4-1-1-1H6C5.4,0,5,0.4,5,1v18c0,0.3,0.1,0.5,0.3,0.7l0.5,0.5l-0.7,1.4C5,21.7,5,21.8,5,22v8    c0,0.6,0.4,1,1,1h0.6l-1.3,1.3C5.1,32.5,5,32.7,5,33v10c0,0.6,0.4,1,1,1h20c2.8,0,5.5-1.1,7.5-3.1l2.3-2.3c2-2,3.1-4.7,3.1-7.5v-3    c0-0.2,0-0.3-0.1-0.4L38.1,26l0.8-1.6C39,24.3,39,24.2,39,24V12c0-0.6-0.4-1-1-1h-0.1l1-1.4C38.9,9.4,39,9.2,39,9z M34.5,37.1    l-2.3,2.3c-0.4,0.4-0.9,0.8-1.4,1.1c0.2-0.5,0.3-1,0.3-1.6v-3h3c0.6,0,1.1-0.1,1.6-0.3C35.3,36.2,34.9,36.7,34.5,37.1z M37,8.7    l-1.8,2.7c-0.2,0.3-0.2,0.7,0,1c0.2,0.3,0.5,0.5,0.9,0.5h1v10.8l-0.9,1.8c-0.1,0.3-0.1,0.6,0,0.9l0.9,1.8V31c0,1.7-1.3,3-3,3h-4    c-0.6,0-1,0.4-1,1v4c0,1.7-1.3,3-3,3H15v-2c0-0.6-0.4-1-1-1s-1,0.4-1,1v2H7v-8.6l2.7-2.7c0.3-0.3,0.4-0.7,0.2-1.1S9.4,29,9,29H7    v-6.8l0.9-1.8c0.2-0.4,0.1-0.8-0.2-1.2L7,18.6V2h7v1c0,0.6,0.4,1,1,1s1-0.4,1-1V2h1v3c0,0.6,0.4,1,1,1s1-0.4,1-1V2h18V8.7z"/><path d="M27,34H17c-0.6,0-1,0.4-1,1s0.4,1,1,1h10c0.6,0,1-0.4,1-1S27.6,34,27,34z"/></svg>